<svg xmlns="http://www.w3.org/2000/svg" width="694.386" height="212.421" viewBox="0 0 694.386 212.421">
  <g id="logo" transform="translate(-153.2 -33.256)">
    <path id="Path_44" data-name="Path 44" d="M782.8,115.7a5.279,5.279,0,0,0,2.5,0c.6-.3.1-.5-1.3-.5S782.1,115.4,782.8,115.7Z" fill="rgba(255,255,255,0.02)"/>
    <path id="Path_45" data-name="Path 45" d="M289.1,60.6c0,1.1.3,1.4.6.6a2.026,2.026,0,0,0-.1-1.9c-.3-.4-.6.2-.5,1.3Z" fill="rgba(159,159,159,0.38)"/>
    <path id="Path_46" data-name="Path 46" d="M286.3,202c0,3,.2,4.3.4,2.7a25.277,25.277,0,0,0,0-5.5C286.5,197.7,286.3,199,286.3,202Z" fill="rgba(132,132,132,0.49)"/>
    <path id="Path_47" data-name="Path 47" d="M286.3,213c0,3,.2,4.3.4,2.7a25.277,25.277,0,0,0,0-5.5C286.5,208.7,286.3,210,286.3,213Z" fill="rgba(141,141,141,0.45)"/>
    <path id="Path_48" data-name="Path 48" d="M388.1,130.6c0,1.1.3,1.4.6.6a2.026,2.026,0,0,0-.1-1.9c-.3-.4-.6.2-.5,1.3Zm.3,25.9c0,5.5.1,7.6.3,4.7a83.361,83.361,0,0,0,0-10C388.5,148.6,388.4,151,388.4,156.5Z" fill="rgba(197,197,197,0.22)"/>
    <path id="Path_49" data-name="Path 49" d="M775.1,131.6c0,1.1.3,1.4.6.6a2.026,2.026,0,0,0-.1-1.9c-.3-.4-.6.2-.5,1.3ZM539.3,158c0,4.7.2,6.6.4,4.2a60.275,60.275,0,0,0,0-8.5C539.5,151.4,539.3,153.3,539.3,158Zm278.8,22.6c0,1.1.3,1.4.6.6a2.026,2.026,0,0,0-.1-1.9c-.3-.4-.6.2-.5,1.3Z" fill="rgba(255,255,255,0.03)"/>
    <path id="Path_50" data-name="Path 50" d="M287.2,88c0,1.4.2,1.9.5,1.2a5.278,5.278,0,0,0,0-2.5C287.4,86.1,287.2,86.6,287.2,88Zm-.1,4.6c0,1.1.3,1.4.6.6a2.026,2.026,0,0,0-.1-1.9C287.3,90.9,287,91.5,287.1,92.6ZM422,111.1c0,.5.5.7,1,.4.6-.3,1-.8,1-1.1,0-.2-.4-.4-1-.4A1.1,1.1,0,0,0,422,111.1Zm229.3,14.6a10.279,10.279,0,0,0,3.5,0c.9-.3.1-.5-1.8-.5S650.3,125.4,651.3,125.7Zm58,0a10.279,10.279,0,0,0,3.5,0c.9-.3.1-.5-1.8-.5S708.3,125.4,709.3,125.7Zm20,0a7.557,7.557,0,0,0,3,0c.6-.3-.1-.5-1.8-.5C728.9,125.2,728.3,125.4,729.3,125.7Zm32.5,0a16.946,16.946,0,0,0,4.5,0c1.2-.2.2-.4-2.3-.4S760.5,125.5,761.8,125.7Zm40,0a5.279,5.279,0,0,0,2.5,0c.6-.3.1-.5-1.3-.5S801.1,125.4,801.8,125.7ZM403.4,153.5c0,7.1.1,9.9.3,6.2s.2-9.6,0-13S403.4,146.3,403.4,153.5Zm373.7-.9c0,1.1.3,1.4.6.6a2.026,2.026,0,0,0-.1-1.9c-.3-.4-.6.2-.5,1.3ZM554.2,158c0,1.4.2,1.9.5,1.2a5.278,5.278,0,0,0,0-2.5C554.4,156.1,554.2,156.6,554.2,158ZM220.5,178c.3.5.8,1,1.1,1,.2,0,.4-.5.4-1a1.028,1.028,0,0,0-1.1-1C220.4,177,220.2,177.4,220.5,178Z" fill="rgba(0,0,0,0)"/>
    <path id="Path_51" data-name="Path 51" d="M539.3,146.5c0,2.2.2,3,.4,1.7a13.389,13.389,0,0,0,0-4C539.4,143.3,539.2,144.3,539.3,146.5Z" fill="rgba(255,255,255,0.03)"/>
    <path id="Path_52" data-name="Path 52" d="M295.1,66.6c0,1.1.3,1.4.6.6a2.026,2.026,0,0,0-.1-1.9C295.3,64.9,295,65.5,295.1,66.6ZM286.3,90c0,4.1.2,5.8.4,3.7a46.942,46.942,0,0,0,0-7.5C286.5,84.2,286.3,85.9,286.3,90Zm98.5,21.7c6.1.2,16.3.2,22.5,0,6.1-.1,1.1-.3-11.3-.3S378.6,111.6,384.8,111.7Zm40.6,27.8c0,15.9.2,22.3.3,14.2.2-8.2.2-21.2,0-29C425.6,116.9,425.4,123.5,425.4,139.5ZM438.3,118c0,4.1.2,5.8.4,3.7a46.942,46.942,0,0,0,0-7.5C438.5,112.2,438.3,113.9,438.3,118Zm284.9-4c0,1.4.2,1.9.5,1.2a5.278,5.278,0,0,0,0-2.5C723.4,112.1,723.2,112.6,723.2,114Zm55.2,24c0,10.7.2,15.1.3,9.7.2-5.3.2-14.1,0-19.5C778.6,122.9,778.4,127.3,778.4,138ZM376.8,123.7a53.39,53.39,0,0,0,8,0c2-.2.1-.4-4.3-.4S374.4,123.5,376.8,123.7Zm30,0a53.39,53.39,0,0,0,8,0c2-.2.1-.4-4.3-.4S404.4,123.5,406.8,123.7Zm244,3a13.39,13.39,0,0,0,4,0c.9-.3-.1-.5-2.3-.4C650.3,126.3,649.5,126.5,650.8,126.7Zm30,0a5.279,5.279,0,0,0,2.5,0c.6-.3.1-.5-1.3-.5S680.1,126.4,680.8,126.7Zm29,0a13.39,13.39,0,0,0,4,0c.9-.3-.1-.5-2.3-.4C709.3,126.3,708.5,126.5,709.8,126.7Zm19,0a13.39,13.39,0,0,0,4,0c.9-.3-.1-.5-2.3-.4C728.3,126.3,727.5,126.5,728.8,126.7Zm33,0a35.279,35.279,0,0,0,6.5,0c1.7-.2.3-.4-3.3-.4S760,126.5,761.8,126.7Zm32.9,0a40.89,40.89,0,0,0,7,0c2.1-.2.7-.4-3.2-.4C794.7,126.3,793,126.5,794.7,126.7ZM737.4,149c0,10.7.2,15.1.3,9.7.2-5.3.2-14.1,0-19.5C737.6,133.9,737.4,138.3,737.4,149Zm70.8-17c0,1.4.2,1.9.5,1.2a5.278,5.278,0,0,0,0-2.5C808.4,130.1,808.2,130.6,808.2,132Zm-250,1.5c0,1.6.2,2.2.5,1.2a7.556,7.556,0,0,0,0-3C558.4,131.1,558.2,131.8,558.2,133.5Zm82-.5c0,1.4.2,1.9.5,1.2a5.278,5.278,0,0,0,0-2.5C640.4,131.1,640.2,131.6,640.2,133Zm-66.4,3.7a5.279,5.279,0,0,0,2.5,0c.6-.3.1-.5-1.3-.5S573.1,136.4,573.8,136.7ZM438.4,153c0,8.5.2,12,.3,7.7.2-4.2.2-11.2,0-15.5C438.6,141,438.4,144.5,438.4,153ZM616,138.9a1.9,1.9,0,0,0,1,1.6c.6.3.7-.1.4-.9-.7-1.8-1.4-2.1-1.4-.7Zm-9.5,8.1a7.646,7.646,0,0,0,2.3,2c.3,0-.3-.9-1.3-2a7.646,7.646,0,0,0-2.3-2C604.9,145,605.5,145.9,606.5,147ZM470.4,157c0,6.3.1,8.9.3,5.7a110.272,110.272,0,0,0,0-11.5C470.5,148.1,470.4,150.7,470.4,157Zm332.4,3.7a5.279,5.279,0,0,0,2.5,0c.6-.3.1-.5-1.3-.5S802.1,160.4,802.8,160.7Zm-181.5,1a7.557,7.557,0,0,0,3,0c.6-.3-.1-.5-1.8-.5C620.9,161.2,620.3,161.4,621.3,161.7ZM604.2,165c0,1.4.2,1.9.5,1.2a5.278,5.278,0,0,0,0-2.5C604.4,163.1,604.2,163.6,604.2,165Zm204,0c0,1.4.2,1.9.5,1.2a5.278,5.278,0,0,0,0-2.5C808.4,163.1,808.2,163.6,808.2,165Zm9.1,1.5c0,2.2.2,3,.4,1.7a13.389,13.389,0,0,0,0-4C817.4,163.3,817.2,164.3,817.3,166.5Zm10.8.1c0,1.1.3,1.4.6.6a2.026,2.026,0,0,0-.1-1.9c-.3-.4-.6.2-.5,1.3Zm-10.9,12.1.2,5.8.3-5.3c.3-3.5.8-5,1.5-4.6s.8.2.4-.4C818,171.5,817,173.3,817.2,178.7Zm21.4-3.9c-.3.5.1.9.9.9s1.2-.4.9-.9c-.3-.4-.7-.8-.9-.8S838.9,174.4,838.6,174.8ZM286.3,188.5c0,4.4.2,6.1.4,3.7a53.386,53.386,0,0,0,0-8C286.5,182.2,286.3,184.1,286.3,188.5Zm8.8,24.1c0,1.1.3,1.4.6.6a2.026,2.026,0,0,0-.1-1.9c-.3-.4-.6.2-.5,1.3Zm-10.2,25.1c-1.3,1.6-1.2,1.7.4.4a6.226,6.226,0,0,0,1.7-1.7C287,235.6,286.2,236.1,284.9,237.7Z" fill="#666"/>
    <path id="Path_53" data-name="Path 53" d="M285,41.5a13.3,13.3,0,0,0,2.8,2.5c.3,0-.5-1.1-1.8-2.5a13.3,13.3,0,0,0-2.8-2.5C282.9,39,283.7,40.1,285,41.5ZM225.2,69c0,1.4.2,1.9.5,1.2a5.279,5.279,0,0,0,0-2.5C225.4,67.1,225.2,67.6,225.2,69Zm70.2,17c0,10.2.2,14.3.3,9.2.2-5,.2-13.4,0-18.5C295.6,71.7,295.4,75.8,295.4,86Zm478.8,46c0,1.4.2,1.9.5,1.2a5.278,5.278,0,0,0,0-2.5C774.4,130.1,774.2,130.6,774.2,132Zm-203.4,4.7a2.026,2.026,0,0,0,1.9-.1c.4-.3-.2-.6-1.3-.5-1.1,0-1.4.3-.6.6Zm-45.4,15.8c0,8.8.2,12.3.3,7.7.2-4.6.2-11.8,0-16C525.6,140,525.4,143.7,525.4,152.5Zm-18.3-10.9c0,1.1.3,1.4.6.6a2.026,2.026,0,0,0-.1-1.9c-.3-.4-.6.2-.5,1.3Zm12.1,1.4c0,1.9.2,2.7.5,1.7a10.278,10.278,0,0,0,0-3.5C519.4,140.3,519.2,141.1,519.2,143Zm19.2,11c0,8,.2,11.2.3,7.2.2-3.9.2-10.5,0-14.5C538.6,142.8,538.4,146,538.4,154Zm60-3c0,6.3.1,8.9.3,5.7a110.272,110.272,0,0,0,0-11.5C598.5,142.1,598.4,144.7,598.4,151Zm-96.6-6.3a2.026,2.026,0,0,0,1.9-.1c.4-.3-.2-.6-1.3-.5C501.3,144.1,501,144.4,501.8,144.7Zm-10,1a2.026,2.026,0,0,0,1.9-.1c.4-.3-.2-.6-1.3-.5C491.3,145.1,491,145.4,491.8,145.7ZM457.4,157c0,6.3.1,8.9.3,5.7a110.272,110.272,0,0,0,0-11.5C457.5,148.1,457.4,150.7,457.4,157ZM666,159c-.9.6-1,1-.3,1a2.534,2.534,0,0,0,1.8-1C668.3,157.8,667.9,157.8,666,159Zm-167.2,2.7a2.026,2.026,0,0,0,1.9-.1c.4-.3-.2-.6-1.3-.5C498.3,161.1,498,161.4,498.8,161.7Zm4,0a2.026,2.026,0,0,0,1.9-.1c.4-.3-.2-.6-1.3-.5C502.3,161.1,502,161.4,502.8,161.7Zm115,0a2.026,2.026,0,0,0,1.9-.1c.4-.3-.2-.6-1.3-.5-1.1,0-1.4.3-.6.6Zm-101.6,2.8c0,1.6.2,2.2.5,1.2a7.556,7.556,0,0,0,0-3C516.4,162.1,516.2,162.8,516.2,164.5Zm-36.2-.1a5.734,5.734,0,0,0,1.8,1.7c1.5,1.3,1.6,1.2.3-.4s-2.1-2.1-2.1-1.3Zm13.8,7.3a2.026,2.026,0,0,0,1.9-.1c.4-.3-.2-.6-1.3-.5C493.3,171.1,493,171.4,493.8,171.7Zm9,0a2.026,2.026,0,0,0,1.9-.1c.4-.3-.2-.6-1.3-.5C502.3,171.1,502,171.4,502.8,171.7Zm114,0a2.026,2.026,0,0,0,1.9-.1c.4-.3-.2-.6-1.3-.5-1.1,0-1.4.3-.6.6Zm9,0a2.026,2.026,0,0,0,1.9-.1c.4-.3-.2-.6-1.3-.5-1.1,0-1.4.3-.6.6Zm173,0a2.026,2.026,0,0,0,1.9-.1c.4-.3-.2-.6-1.3-.5-1.1,0-1.4.3-.6.6Zm22.7,1.3c-.3.6.1.7.9.4,1.8-.7,2.1-1.4.7-1.4a1.9,1.9,0,0,0-1.6,1ZM295.4,193c0,10.2.2,14.3.3,9.2.2-5,.2-13.4,0-18.5C295.6,178.7,295.4,182.8,295.4,193Zm532.9-9.5c0,.8.4,1.5.9,1.5a.882.882,0,0,0,.8-.9,2.04,2.04,0,0,0-.8-1.5C828.7,182.3,828.3,182.7,828.3,183.5Zm2.7.5a1.1,1.1,0,0,0,1.1,1c.5,0,.7-.5.4-1-.3-.6-.8-1-1.1-1C831.2,183,831,183.4,831,184Zm14.7.1c.7.7,1.5,1,1.8.7s-.2-.9-1.2-1.2C844.9,183,844.8,183.1,845.7,184.1ZM225.2,209.5c0,1.6.2,2.2.5,1.2a7.557,7.557,0,0,0,0-3C225.4,207.1,225.2,207.8,225.2,209.5Z" fill="#333"/>
    <path id="Path_54" data-name="Path 54" d="M250.1,34.5c-6.7,1.9-11,4.5-15,9.1-7.7,8.7-9.5,16.3-9.6,40.9v19l34.8.3,34.9.2-.4-23.2c-.3-23.1-.3-23.3-3.1-29.4-5.5-11.8-14.4-17.5-28.2-18.1a48.618,48.618,0,0,0-13.4,1.2Zm32.7,14.6a12.1,12.1,0,0,1,5.2,4.4c1.8,3,2,4.9,2,24.4,0,19.7-.1,21.2-1.7,20.9s-1.8-2.4-2.3-22.1l-.5-21.9-3.2-2.9c-4.6-4.1-4.5-4.6.5-2.8Zm472.9,58.3c-5.2,1.9-8.5,5.2-9.7,9.5-1.5,5.4-1.3,51.4.2,52.9,1.6,1.6,9,1.6,10.6,0,.8-.8,1.2-6,1.2-17V137.1l7.8-.3,7.7-.3v-9l-7.7-.3-7.8-.3v-3.3c0-5,2.5-6.6,10.1-6.6,3.7,0,7-.5,7.7-1.2,2-2,1.4-5.6-1.2-7.3-3.4-2.2-14.2-2.9-18.9-1.1Zm-29.5,1.2c-1.6,1.1-2.2,2.5-2.2,5.4s.6,4.3,2.2,5.4c2.4,1.7,6.5,2.1,8.4.8,2.2-1.4,3.5-5.3,2.9-8.3-1.1-4.8-6.8-6.5-11.3-3.3Zm-299.1.8c-.8.9-1.1,10-.9,31.2l.3,29.9h11l.3-16.8L438,137h6c7.1,0,10.5,1.2,12.2,4.2.7,1.4,1.4,7.7,1.8,15.8l.5,13.5,3.4.3a17.864,17.864,0,0,0,5.8-.3l2.5-.6-.4-15.3c-.3-14.6-.4-15.4-3-19.3-3.8-5.7-9.8-8.4-20.4-9.1l-8.4-.5v-7.6c0-4.7-.5-8.2-1.2-8.9-1.6-1.6-8.3-1.5-9.7.2Zm-55.9,3.8c-.7.7-1.2,2.6-1.2,4.3,0,4.7,1.5,5.5,10.7,5.5H389v22.8c0,16.4.3,23.1,1.2,24,1.6,1.6,9,1.6,10.6,0,.9-.9,1.2-7.6,1.2-24V123h8.3c9.2,0,10.7-.8,10.7-5.5,0-1.7-.5-3.6-1.2-4.3C418.1,111.5,372.9,111.5,371.2,113.2ZM780.8,117c-1.6,1-1.8,3.2-1.8,22.1,0,19,.2,21.3,2,24.9,2.8,5.5,6.9,7.4,15.6,7.3,9.4-.1,11.6-1.3,11.2-6.1l-.3-3.7-6.7-.5c-3.7-.3-7.1-1-7.7-1.5-.5-.6-1.1-5.7-1.2-11.5l-.2-10.5,6.9-.3c8.1-.4,9.6-1.3,9.2-6.1l-.3-3.6-7.7-.3c-4.3-.2-7.9-.6-7.9-1a41.675,41.675,0,0,1-.4-4.5,11.173,11.173,0,0,0-.8-4.3c-1.1-1.2-8.3-1.4-9.9-.4ZM490.5,127.4c-9.2,2.9-13.4,8.5-14.2,19.1-1.1,13.9,5.5,22.9,18.4,24.9,4.9.7,18-.9,20-2.5,1.5-1.3,1.8-7.5.4-8.4-.6-.3-4,0-7.8.6-8.1,1.3-14.6,0-16.4-3.2-.6-1.1-.8-2.3-.5-2.6.2-.3,5.7-1.1,12-1.9,6.3-.7,12.4-1.8,13.6-2.4,4.4-2.3,4.1-14.2-.6-19.1-5-5.2-16.2-7.2-24.9-4.5Zm12.1,8.6c1.9,0,5.4,3.6,5.4,5.5,0,2.1-3.1,3.1-11.7,3.9-7.1.6-7.3.6-7.3-1.7a10.418,10.418,0,0,1,1.5-4.5c1.6-2.2,7-4.3,9.3-3.6a13.505,13.505,0,0,0,2.8.4Zm34.1-9c-5.8,1-9.5,3.2-10.2,6.3-.3,1.2-.4,10.1-.3,19.7l.3,17.5h11l.5-15.7c.3-8.6.8-16,1.2-16.4s3.1-.9,6-1.2c2.9-.2,5.9-.9,6.6-1.4,1.5-1.3,1.6-7,0-8.6-1.3-1.3-7.7-1.4-15.1-.2Zm30,0a20.978,20.978,0,0,0-6.3,2c-1.6,1.4-1.9,7.6-.5,8.5.6.3,4.1,0,7.9-.6,8.1-1.3,13.5-.6,16.3,2.2,3.9,3.9,2.6,4.9-6.8,4.9-10.6,0-15.2,1.1-18.4,4.6-2,2.2-2.4,3.6-2.4,8.9,0,10.8,4.4,13.5,22.3,13.5,11.1,0,16.3-1.4,18.1-4.8.6-1.2,1.1-7.8,1.1-15.4,0-15.4-1.1-18.3-8.1-21.8-4.8-2.5-15.6-3.4-23.2-2ZM586,156.3c0,4.7-1.5,5.7-9,5.7-7,0-9-1-9-4.5,0-3.6,2-4.5,10.2-4.5H586Zm28-28.8c-6.8,2.1-9.5,5.5-9.5,11.7,0,4.3.4,5.3,3.2,7.8a27.057,27.057,0,0,0,9,4.5c13.1,3.6,13.8,4,14.1,6.1.6,4-6.3,5.4-16.8,3.4-7.2-1.4-9-.7-9,3.4,0,4.5,1.4,5.4,9.9,6.6,16.5,2.3,28.1-3.3,28.1-13.6,0-6.8-5.3-11-17.6-14-8.3-2-10.4-3.5-8.3-6,1.1-1.4,3-1.6,11.9-1.3l10.5.4V133c0-2.8-.5-3.7-2.8-4.8-4.3-2.1-17.3-2.5-22.7-.7Zm33.3,1.1c-.6,1.5,3.8,28.6,5.7,35.7,1.7,6,8.3,8.8,16,6.7,5.6-1.5,7.1-4.4,9.9-18.9,1.3-6.6,2.7-11.9,3.1-11.6.4.2,1.7,5.6,3,11.9,2.7,13.9,4.4,17.1,10,18.6,7.7,2.1,13.8-.7,15.8-7.2,1.9-6,6.5-33.7,5.9-35.3-.7-1.7-10.1-2.2-11.1-.6-.3.5-1.7,7.6-3.2,15.7-3.7,21.3-5,21.7-8.9,2.8-3.7-17.7-4.7-19.4-11.7-19.4s-7.9,1.7-11.8,21c-3.4,17.1-4.8,16.4-8.5-4-1.4-7.9-3.1-15-3.7-15.7C656.3,126.4,648.1,126.6,647.3,128.6Zm77.8.3c-1.4,2.6-1.5,37.6-.1,40.2,1.3,2.3,9.1,2.7,10.9.5.8-.9,1.1-7.5.9-21.7l-.3-20.4-5.2-.3c-4.3-.3-5.4,0-6.2,1.7ZM815,172c0,7.3.4,12,1,12s1-2.5,1-5.5.4-5.5.9-5.5,2.7,2.5,5,5.5,4.6,5.5,5.2,5.5c1.3,0,.5-1.3-3.9-6.7-3.1-3.9-3.2-4.3-1.6-4.9,3.9-1.2,4.9-2.2,5.2-5.2.5-4.5-2.6-7.2-8.3-7.2H815v12Zm9.8-8.8a5.1,5.1,0,0,1,1.2,3.3q0,4.5-5.7,4.5c-3.2,0-3.3-.1-3.3-4.5s.1-4.5,3.3-4.5C822.1,162,824.1,162.5,824.8,163.2Zm7.2-2.7a41.8,41.8,0,0,0,3.2,5.7l3.2,5.2-3.2,5.9c-1.8,3.3-3,6.2-2.7,6.5.6.7.5.8,4-5.2,2.7-4.9,2.8-4.9,4.4-2.9a47.109,47.109,0,0,1,3.3,5.2c.9,1.7,2.2,3.1,2.9,3.1.6,0,.2-1.4-1.1-3.3-5.4-8.2-5.5-8.8-2.1-14.4,3.2-5.2,3.6-6.3,2.3-6.3-.4,0-1.8,2-3.2,4.5s-2.8,4.5-3.2,4.5-1.9-2-3.4-4.5C834.2,160.7,832,158.7,832,160.5ZM225.3,195.2c.6,22.9,2.1,30.3,8,38,7.2,9.5,21.1,14.2,35.1,11.9,11.7-2,18.3-7,23.3-17.6,2.8-5.9,2.8-6.2,3.1-29.3l.4-23.2H224.7l.6,20.2Zm64.7,6.2c0,21.4,0,21.4-2.5,24.4-2.3,2.7-8.5,6-8.5,4.5,0-.4,1.5-1.9,3.3-3.4l3.2-2.7.3-20.8c.1-11.5.5-21.5.7-22.2a2.222,2.222,0,0,1,2-1.2C289.8,180,290,182.9,290,201.4Z"/>
    <path id="Path_55" data-name="Path 55" d="M738.4,148.5c0,8.8.2,12.3.3,7.7.2-4.6.2-11.8,0-16C738.6,136,738.4,139.7,738.4,148.5Zm-282.1,14c0,2.2.2,3,.4,1.7a13.389,13.389,0,0,0,0-4C456.4,159.3,456.2,160.3,456.3,162.5Z" fill="rgba(255,255,255,0.02)"/>
    <path id="Path_56" data-name="Path 56" d="M577.3,153.7a20.89,20.89,0,0,0,5,0c1.2-.2,0-.4-2.8-.4C576.8,153.3,575.7,153.5,577.3,153.7Z" fill="rgba(168,168,168,0.35)"/>
    <path id="Path_57" data-name="Path 57" d="M723.4,149.5c0,9.3.2,13.3.3,8.8.2-4.5.2-12.2,0-17C723.6,136.5,723.4,140.1,723.4,149.5Z" fill="rgba(223,223,223,0.13)"/>
    <path id="Path_58" data-name="Path 58" d="M388.3,139.5c0,4.4.2,6.1.4,3.7a53.386,53.386,0,0,0,0-8C388.5,133.2,388.3,135.1,388.3,139.5Z" fill="rgba(196,196,196,0.22)"/>
    <path id="Path_59" data-name="Path 59" d="M224.3,189c0,4.1.2,5.8.4,3.7a46.946,46.946,0,0,0,0-7.5C224.5,183.2,224.3,184.9,224.3,189Z" fill="rgba(213,213,213,0.17)"/>
    <path id="Path_60" data-name="Path 60" d="M814.4,173c0,5.2.1,7.4.3,4.7a75.274,75.274,0,0,0,0-9.5C814.5,165.6,814.4,167.8,814.4,173Z" fill="rgba(145,145,145,0.43)"/>
    <path id="Path_61" data-name="Path 61" d="M524.1,139.6c0,1.1.3,1.4.6.6a2.026,2.026,0,0,0-.1-1.9c-.3-.4-.6.2-.5,1.3Zm.1,19.9c0,1.6.2,2.2.5,1.2a7.556,7.556,0,0,0,0-3C524.4,157.1,524.2,157.8,524.2,159.5Z" fill="rgba(226,226,226,0.1)"/>
    <path id="Path_62" data-name="Path 62" d="M599.3,151.5c0,4.4.2,6.1.4,3.7a53.386,53.386,0,0,0,0-8C599.5,145.2,599.3,147.1,599.3,151.5Z" fill="rgba(219,219,219,0.14)"/>
    <path id="Path_63" data-name="Path 63" d="M819.3,159.7a7.557,7.557,0,0,0,3,0c.6-.3-.1-.5-1.8-.5C818.9,159.2,818.3,159.4,819.3,159.7Z" fill="rgba(228,228,228,0.11)"/>
    <path id="Path_64" data-name="Path 64" d="M439.2,114.5c0,1.6.2,2.2.5,1.2a7.556,7.556,0,0,0,0-3C439.4,112.1,439.2,112.8,439.2,114.5Zm.2,41c0,6.6.1,9.2.3,5.7.2-3.4.2-8.8,0-12C439.5,146.1,439.4,148.9,439.4,155.5Z" fill="rgba(255,255,255,0.04)"/>
    <path id="Path_65" data-name="Path 65" d="M287.1,95.6c0,1.1.3,1.4.6.6a2.026,2.026,0,0,0-.1-1.9C287.3,93.9,287,94.5,287.1,95.6Zm507.7,30.1a16.946,16.946,0,0,0,4.5,0c1.2-.2.2-.4-2.3-.4S793.5,125.5,794.8,125.7ZM471.4,157.5c0,6,.1,8.4.3,5.2a100.86,100.86,0,0,0,0-11C471.5,148.8,471.4,151.4,471.4,157.5ZM197.2,175.7c3.7.2,10,.2,14,0,4-.1,1-.3-6.7-.3S193.5,175.5,197.2,175.7Zm23.6,0a2.026,2.026,0,0,0,1.9-.1c.4-.3-.2-.6-1.3-.5-1.1,0-1.4.3-.6.6Zm87,0c4.6.2,11.8.2,16,0,4.2-.1.5-.3-8.3-.3S303.2,175.6,307.8,175.7Zm-20.7,7.9c0,1.1.3,1.4.6.6a2.026,2.026,0,0,0-.1-1.9c-.3-.4-.6.2-.5,1.3Z" fill="rgba(255,255,255,0.01)"/>
    <path id="Path_66" data-name="Path 66" d="M289.2,89c0,1.9.2,2.7.5,1.7a10.278,10.278,0,0,0,0-3.5C289.4,86.3,289.2,87.1,289.2,89Z" fill="rgba(177,177,177,0.31)"/>
    <path id="Path_67" data-name="Path 67" d="M289.3,79.5c0,3.3.2,4.5.4,2.7a30.031,30.031,0,0,0,0-6C289.5,74.7,289.3,76.2,289.3,79.5Z" fill="rgba(170,170,170,0.33)"/>
    <path id="Path_68" data-name="Path 68" d="M224.2,77c0,1.4.2,1.9.5,1.2a5.279,5.279,0,0,0,0-2.5C224.4,75.1,224.2,75.6,224.2,77Zm397.1,95.7a7.557,7.557,0,0,0,3,0c.6-.3-.1-.5-1.8-.5C620.9,172.2,620.3,172.4,621.3,172.7Z" fill="rgba(207,207,207,0.19)"/>
    <path id="Path_69" data-name="Path 69" d="M744.4,143c0,11.8.2,16.7.3,10.7.2-5.9.2-15.5,0-21.5C744.6,126.3,744.4,131.2,744.4,143Zm-269.3,6.6c0,1.1.3,1.4.6.6a2.026,2.026,0,0,0-.1-1.9c-.3-.4-.6.2-.5,1.3Z" fill="rgba(149,149,149,0.42)"/>
    <path id="Path_70" data-name="Path 70" d="M286.3,65c0,3,.2,4.3.4,2.7a25.277,25.277,0,0,0,0-5.5C286.5,60.7,286.3,62,286.3,65Z" fill="rgba(140,140,140,0.45)"/>
    <path id="Path_71" data-name="Path 71" d="M758.4,151.5c0,7.1.1,9.9.3,6.2s.2-9.6,0-13S758.4,144.3,758.4,151.5Z" fill="rgba(186,186,186,0.27)"/>
    <path id="Path_72" data-name="Path 72" d="M289.3,68c0,3,.2,4.3.4,2.7a25.277,25.277,0,0,0,0-5.5C289.5,63.7,289.3,65,289.3,68Z" fill="rgba(164,164,164,0.35)"/>
    <path id="Path_73" data-name="Path 73" d="M456.3,154c0,3,.2,4.3.4,2.7a25.277,25.277,0,0,0,0-5.5C456.5,149.7,456.3,151,456.3,154Z" fill="rgba(255,255,255,0.01)"/>
    <path id="Path_74" data-name="Path 74" d="M296.2,96.5c0,1.6.2,2.2.5,1.2a7.556,7.556,0,0,0,0-3C296.4,94.1,296.2,94.8,296.2,96.5Zm0,85c0,1.6.2,2.2.5,1.2a7.556,7.556,0,0,0,0-3C296.4,179.1,296.2,179.8,296.2,181.5Z" fill="rgba(239,239,239,0.06)"/>
    <path id="Path_75" data-name="Path 75" d="M286.3,77c0,2.5.2,3.5.4,2.2a16.944,16.944,0,0,0,0-4.5C286.5,73.5,286.3,74.5,286.3,77Z" fill="rgba(133,133,133,0.48)"/>
    <path id="Path_76" data-name="Path 76" d="M296.3,81c0,4.7.2,6.6.4,4.2a60.275,60.275,0,0,0,0-8.5C296.5,74.4,296.3,76.3,296.3,81Zm-.2,10.6c0,1.1.3,1.4.6.6a2.026,2.026,0,0,0-.1-1.9C296.3,89.9,296,90.5,296.1,91.6Zm.2,106.9c0,4.4.2,6.1.4,3.7a53.386,53.386,0,0,0,0-8C296.5,192.2,296.3,194.1,296.3,198.5Z" fill="rgba(231,231,231,0.08)"/>
    <path id="Path_77" data-name="Path 77" d="M224.3,92c0,4.1.2,5.8.4,3.7a46.946,46.946,0,0,0,0-7.5C224.5,86.2,224.3,87.9,224.3,92Z" fill="rgba(213,213,213,0.16)"/>
    <path id="Path_78" data-name="Path 78" d="M289.3,189c0,2.5.2,3.5.4,2.2a16.944,16.944,0,0,0,0-4.5C289.5,185.5,289.3,186.5,289.3,189Z" fill="rgba(178,178,178,0.31)"/>
    <path id="Path_79" data-name="Path 79" d="M327.8,103.7a2.026,2.026,0,0,0,1.9-.1c.4-.3-.2-.6-1.3-.5C327.3,103.1,327,103.4,327.8,103.7Z" fill="rgba(222,235,216,0.15)"/>
    <path id="Path_80" data-name="Path 80" d="M214.8,103.7a5.279,5.279,0,0,0,2.5,0c.6-.3.1-.5-1.3-.5S214.1,103.4,214.8,103.7Zm88.5,0a7.557,7.557,0,0,0,3,0c.6-.3-.1-.5-1.8-.5C302.9,103.2,302.3,103.4,303.3,103.7Z" fill="rgba(221,234,214,0.15)"/>
    <path id="Path_81" data-name="Path 81" d="M197.8,103.7a30.033,30.033,0,0,0,6,0c1.5-.2,0-.4-3.3-.4S196,103.5,197.8,103.7Zm115,0a13.39,13.39,0,0,0,4,0c.9-.3-.1-.5-2.3-.4C312.3,103.3,311.5,103.5,312.8,103.7Z" fill="rgba(207,229,199,0.23)"/>
    <path id="Path_82" data-name="Path 82" d="M210.8,103.7a5.279,5.279,0,0,0,2.5,0c.6-.3.1-.5-1.3-.5S210.1,103.4,210.8,103.7Z" fill="rgba(221,235,215,0.15)"/>
    <path id="Path_83" data-name="Path 83" d="M299.8,103.7a2.026,2.026,0,0,0,1.9-.1c.4-.3-.2-.6-1.3-.5C299.3,103.1,299,103.4,299.8,103.7Z" fill="rgba(220,234,213,0.14)"/>
    <path id="Path_84" data-name="Path 84" d="M319.8,103.7a13.39,13.39,0,0,0,4,0c.9-.3-.1-.5-2.3-.4C319.3,103.3,318.5,103.5,319.8,103.7Z" fill="rgba(208,230,195,0.24)"/>
    <path id="Path_85" data-name="Path 85" d="M357.5,115a7.646,7.646,0,0,0,2.3,2c.3,0-.3-.9-1.3-2a7.646,7.646,0,0,0-2.3-2C355.9,113,356.5,113.9,357.5,115ZM153.2,140.5c0,1.6.2,2.2.5,1.2a7.557,7.557,0,0,0,0-3C153.4,138.1,153.2,138.8,153.2,140.5Z" fill="#9c6"/>
    <path id="Path_86" data-name="Path 86" d="M198.3,174.7c4.8.2,12.6.2,17.5,0,4.8-.1.8-.3-8.8-.3S193.4,174.6,198.3,174.7Zm107,0c4.8.2,12.6.2,17.5,0,4.8-.1.8-.3-8.8-.3S300.4,174.6,305.3,174.7Z" fill="#6c6"/>
    <path id="Path_87" data-name="Path 87" d="M190.8,104.7a5.279,5.279,0,0,0,2.5,0c.6-.3.1-.5-1.3-.5S190.1,104.4,190.8,104.7Zm20.5,0a67.534,67.534,0,0,0,9,0c2.3-.2.2-.3-4.8-.3C210.6,104.4,208.7,104.5,211.3,104.7Zm87.4,0a40.89,40.89,0,0,0,7,0c2.1-.2.7-.4-3.2-.4C298.7,104.3,297,104.5,298.7,104.7Zm28.6,0a7.557,7.557,0,0,0,3,0c.6-.3-.1-.5-1.8-.5C326.9,104.2,326.3,104.4,327.3,104.7ZM161,163.4a5.734,5.734,0,0,0,1.8,1.7c1.5,1.3,1.6,1.2.3-.4S161,162.6,161,163.4Zm10,1a5.734,5.734,0,0,0,1.8,1.7c1.5,1.3,1.6,1.2.3-.4S171,163.6,171,164.4Z" fill="#693"/>
    <path id="Path_88" data-name="Path 88" d="M187.2,105.2c-14.2,1.2-24.5,7.6-29.9,18.6-2.5,5.2-2.8,6.7-2.8,16.7s.3,11.5,2.7,16.1a31.188,31.188,0,0,0,16.4,14.5l5.9,2.4h162l5.6-2.3c7.7-3.1,14.1-8.9,17-15.4,3-6.9,3.4-21.6.6-29.5-3.6-10.4-14.9-19.1-27.1-20.9-6.3-.9-139.5-1.1-150.4-.2ZM197.6,165c19.8.5,21.9.7,22.2,2.2.3,1.7-1.2,1.8-20.8,1.8-23.7,0-26.1-.5-28.6-6.5-2.3-5.5-1.6-6.1,2-1.9l3.4,3.9,21.8.5Zm153.8-4.6c-.3,1.4-2.2,3.9-4,5.6l-3.5,3H322.4c-20,0-21.5-.1-21.2-1.8.3-1.5,2.4-1.7,22.2-2.2l21.9-.5,3.1-3.7c3.5-4.1,4-4.2,3-.4Z" fill="#390"/>
    <path id="Path_89" data-name="Path 89" d="M242.3,104.7c9.7.2,25.7.2,35.5,0,9.7-.1,1.7-.2-17.8-.2S232.5,104.6,242.3,104.7Z" fill="#360"/>
    <path id="Path_90" data-name="Path 90" d="M761.8,105.7a5.279,5.279,0,0,0,2.5,0c.6-.3.1-.5-1.3-.5S761.1,105.4,761.8,105.7Z" fill="rgba(220,220,220,0.11)"/>
    <path id="Path_91" data-name="Path 91" d="M289.3,211c0,3,.2,4.3.4,2.7a25.277,25.277,0,0,0,0-5.5C289.5,206.7,289.3,208,289.3,211Z" fill="rgba(165,165,165,0.36)"/>
    <path id="Path_92" data-name="Path 92" d="M296.2,187c0,1.9.2,2.7.5,1.7a10.278,10.278,0,0,0,0-3.5C296.4,184.3,296.2,185.1,296.2,187Z" fill="rgba(238,238,238,0.06)"/>
    <path id="Path_93" data-name="Path 93" d="M430.8,107.7a5.279,5.279,0,0,0,2.5,0c.6-.3.1-.5-1.3-.5S430.1,107.4,430.8,107.7Z" fill="rgba(166,166,166,0.35)"/>
    <path id="Path_94" data-name="Path 94" d="M792.3,146.5c0,4.4.2,6.1.4,3.7a53.386,53.386,0,0,0,0-8C792.5,140.2,792.3,142.1,792.3,146.5Z" fill="rgba(210,210,210,0.18)"/>
    <path id="Path_95" data-name="Path 95" d="M524.2,164c0,1.4.2,1.9.5,1.2a5.278,5.278,0,0,0,0-2.5C524.4,162.1,524.2,162.6,524.2,164Z" fill="rgba(227,227,227,0.11)"/>
    <path id="Path_96" data-name="Path 96" d="M575.8,125.7a2.026,2.026,0,0,0,1.9-.1c.4-.3-.2-.6-1.3-.5-1.1,0-1.4.3-.6.6Zm0,36a13.39,13.39,0,0,0,4,0c.9-.3-.1-.5-2.3-.4C575.3,161.3,574.5,161.5,575.8,161.7Z" fill="rgba(182,182,182,0.29)"/>
    <path id="Path_97" data-name="Path 97" d="M439.3,120.5c0,2.2.2,3,.4,1.7a13.389,13.389,0,0,0,0-4C439.4,117.3,439.2,118.3,439.3,120.5Zm-.1,21c0,1.6.2,2.2.5,1.2a7.556,7.556,0,0,0,0-3C439.4,139.1,439.2,139.8,439.2,141.5Zm163.9,23.1c0,1.1.3,1.4.6.6a2.026,2.026,0,0,0-.1-1.9c-.3-.4-.6.2-.5,1.3Z" fill="rgba(232,232,232,0.04)"/>
    <path id="Path_98" data-name="Path 98" d="M576.3,143.7a10.279,10.279,0,0,0,3.5,0c.9-.3.1-.5-1.8-.5S575.3,143.4,576.3,143.7Zm6.5,0a2.026,2.026,0,0,0,1.9-.1c.4-.3-.2-.6-1.3-.5-1.1,0-1.4.3-.6.6Z" fill="rgba(156,156,156,0.38)"/>
    <path id="Path_99" data-name="Path 99" d="M762.8,137.7a30.033,30.033,0,0,0,6,0c1.5-.2,0-.4-3.3-.4S761,137.5,762.8,137.7Zm34,0a30.033,30.033,0,0,0,6,0c1.5-.2,0-.4-3.3-.4S795,137.5,796.8,137.7Z" fill="rgba(172,172,172,0.33)"/>
    <path id="Path_100" data-name="Path 100" d="M402.4,135c0,5.8.1,8.1.3,5.2a91.94,91.94,0,0,0,0-10.5C402.5,126.9,402.4,129.2,402.4,135Zm-8.1,36.7a10.279,10.279,0,0,0,3.5,0c.9-.3.1-.5-1.8-.5S393.3,171.4,394.3,171.7Zm36.5,0a5.279,5.279,0,0,0,2.5,0c.6-.3.1-.5-1.3-.5S430.1,171.4,430.8,171.7Zm101,0a5.279,5.279,0,0,0,2.5,0c.6-.3.1-.5-1.3-.5S531.1,171.4,531.8,171.7Zm44,0a53.39,53.39,0,0,0,8,0c2-.2.1-.4-4.3-.4S573.4,171.5,575.8,171.7Zm153.5,0a10.279,10.279,0,0,0,3.5,0c.9-.3.1-.5-1.8-.5S728.3,171.4,729.3,171.7Zm21,0a7.557,7.557,0,0,0,3,0c.6-.3-.1-.5-1.8-.5C749.9,171.2,749.3,171.4,750.3,171.7Z" fill="rgba(141,141,141,0.45)"/>
    <path id="Path_101" data-name="Path 101" d="M443.8,125.7a5.279,5.279,0,0,0,2.5,0c.6-.3.1-.5-1.3-.5S443.1,125.4,443.8,125.7Z" fill="rgba(183,183,183,0.29)"/>
    <path id="Path_102" data-name="Path 102" d="M524.2,144c0,1.9.2,2.7.5,1.7a10.278,10.278,0,0,0,0-3.5C524.4,141.3,524.2,142.1,524.2,144Zm.1,9c0,2.5.2,3.5.4,2.2a16.944,16.944,0,0,0,0-4.5C524.5,149.5,524.3,150.5,524.3,153Z" fill="rgba(224,224,224,0.1)"/>
    <path id="Path_103" data-name="Path 103" d="M289.3,199c0,3,.2,4.3.4,2.7a25.277,25.277,0,0,0,0-5.5C289.5,194.7,289.3,196,289.3,199Z" fill="rgba(171,171,171,0.33)"/>
    <path id="Path_104" data-name="Path 104" d="M402.4,155c0,5.8.1,8.1.3,5.2a91.94,91.94,0,0,0,0-10.5C402.5,146.9,402.4,149.2,402.4,155Z" fill="rgba(142,142,142,0.45)"/>
    <path id="Path_105" data-name="Path 105" d="M336.8,165.7a5.279,5.279,0,0,0,2.5,0c.6-.3.1-.5-1.3-.5S336.1,165.4,336.8,165.7Z" fill="rgba(180,211,164,0.38)"/>
    <path id="Path_106" data-name="Path 106" d="M183.8,165.7a2.026,2.026,0,0,0,1.9-.1c.4-.3-.2-.6-1.3-.5-1.1,0-1.4.3-.6.6Z" fill="rgba(178,211,162,0.39)"/>
    <path id="Path_107" data-name="Path 107" d="M331.8,165.7a2.026,2.026,0,0,0,1.9-.1c.4-.3-.2-.6-1.3-.5C331.3,165.1,331,165.4,331.8,165.7Z" fill="rgba(182,211,164,0.38)"/>
    <path id="Path_108" data-name="Path 108" d="M192.8,168.7a2.026,2.026,0,0,0,1.9-.1c.4-.3-.2-.6-1.3-.5-1.1,0-1.4.3-.6.6Z" fill="rgba(181,212,163,0.39)"/>
    <path id="Path_109" data-name="Path 109" d="M195.8,168.7a5.279,5.279,0,0,0,2.5,0c.6-.3.1-.5-1.3-.5S195.1,168.4,195.8,168.7Zm114.5,0a75.28,75.28,0,0,0,9.5,0c2.6-.2.4-.3-4.8-.3S307.6,168.5,310.3,168.7Z" fill="rgba(179,212,162,0.4)"/>
    <path id="Path_110" data-name="Path 110" d="M196.3,165.7a10.279,10.279,0,0,0,3.5,0c.9-.3.1-.5-1.8-.5S195.3,165.4,196.3,165.7Z" fill="rgba(160,200,140,0.49)"/>
    <path id="Path_111" data-name="Path 111" d="M203.8,165.7a35.279,35.279,0,0,0,6.5,0c1.7-.2.3-.4-3.3-.4S202,165.5,203.8,165.7Z" fill="rgba(161,201,141,0.5)"/>
    <path id="Path_112" data-name="Path 112" d="M309.8,165.7a5.279,5.279,0,0,0,2.5,0c.6-.3.1-.5-1.3-.5S309.1,165.4,309.8,165.7Zm-128.5,3a7.557,7.557,0,0,0,3,0c.6-.3-.1-.5-1.8-.5C180.9,168.2,180.3,168.4,181.3,168.7Z" fill="rgba(160,202,140,0.49)"/>
    <path id="Path_113" data-name="Path 113" d="M315.8,165.7a30.033,30.033,0,0,0,6,0c1.5-.2,0-.4-3.3-.4S314,165.5,315.8,165.7Z" fill="rgba(159,202,141,0.49)"/>
    <path id="Path_114" data-name="Path 114" d="M202.8,168.7a60.28,60.28,0,0,0,8.5,0c2.3-.2.4-.4-4.3-.4S200.4,168.5,202.8,168.7Z" fill="rgba(180,212,163,0.4)"/>
    <path id="Path_115" data-name="Path 115" d="M794.8,172.7a2.026,2.026,0,0,0,1.9-.1c.4-.3-.2-.6-1.3-.5-1.1,0-1.4.3-.6.6ZM224.2,201.5c0,1.6.2,2.2.5,1.2a7.557,7.557,0,0,0,0-3C224.4,199.1,224.2,199.8,224.2,201.5Z" fill="rgba(208,208,208,0.19)"/>
    <path id="Path_116" data-name="Path 116" d="M242.7,174.7c9.4.2,25.2.2,35,0,9.8-.1,2.1-.2-17.2-.2C241.3,174.4,233.2,174.6,242.7,174.7Z" fill="#060"/>
  </g>
</svg>
